<?xml version="1.0" encoding="UTF-8" standalone="no"?>
<svg
   xmlns:dc="http://purl.org/dc/elements/1.1/"
   xmlns:cc="http://creativecommons.org/ns#"
   xmlns:rdf="http://www.w3.org/1999/02/22-rdf-syntax-ns#"
   xmlns:svg="http://www.w3.org/2000/svg"
   xmlns="http://www.w3.org/2000/svg"
   xmlns:xlink="http://www.w3.org/1999/xlink"
   style="font-style:normal;font-weight:normal;font-size:12px;font-family:Dialog;color-interpolation:auto;fill:#000000;fill-opacity:1;stroke:#000000;stroke-width:1;stroke-linecap:square;stroke-linejoin:miter;stroke-miterlimit:10;stroke-dasharray:none;stroke-dashoffset:0;stroke-opacity:1;color-rendering:auto;image-rendering:auto;shape-rendering:auto;text-rendering:auto"
   version="1.1"
   id="svg2"
   font-size="12px"
   font-style="normal"
   height="101.76238"
   font-weight="normal"
   stroke-miterlimit="10"
   width="176.54956">
  <metadata
     id="metadata333">
    <rdf:RDF>
      <cc:Work
         rdf:about="">
        <dc:format>image/svg+xml</dc:format>
        <dc:type
           rdf:resource="http://purl.org/dc/dcmitype/StillImage" />
        <dc:title></dc:title>
      </cc:Work>
    </rdf:RDF>
  </metadata>
  <!--Generated by Marvin with Batik SVG Generator
MolSource:
<?xml version="1.0" encoding="UTF-8"?><cml xmlns="http://www.chemaxon.com" xmlns:xsi="http://www.w3.org/2001/XMLSchema-instance" xsi:schemaLocation="http://www.chemaxon.com/marvin/schema/mrvSchema_16_02_15.xsd" version="ChemAxon file format v16.02.15, generated by v16.3.21.0">
<MDocument><MChemicalStruct><molecule molID="m1"><atomArray atomID="a1 a2 a3 a4 a5 a6 a7 a8 a9 a10 a11 a12 a13 a14 a15 a16 a17 a18 a19 a20 a21" elementType="N C C C C C C N C C C B F F C C C C C C C" formalCharge="0 0 0 0 0 0 0 1 0 0 0 -1 0 0 0 0 0 0 0 0 0" x2="6.50450913851717 7.969136173611706 8.874325462142114 7.969136173611706 6.50450913851717 5.170830016689133 3.8371508948610975 3.837150894861098 2.3725238597665603 1.4673345712361519 2.372523859766562 5.170830016689133 5.893816223379404 4.447843809998859 5.170830016689133 8.445022344949125 10.405889181009254 8.445022344949127 1.8966376884291432 -0.07266542876384818 1.9739425303086786" y2="2.196877770447621 2.672763941785041 1.4268777704476212 0.1809915991102018 0.6568777704476207 -0.11312222955238194 0.6568777704476185 2.1968777704476183 0.1809915991101998 1.426877770447619 2.6727639417850373 2.9668777704476197 4.326617063450367 4.3266170634503665 -1.653122229552382 -1.2836354359843343 1.2659039370154348 4.137390976879577 4.137390976879574 1.4268777704476188 -1.3065341733749654"></atomArray><bondArray><bond id="b1" atomRefs2="a1 a2" order="1"></bond><bond id="b2" atomRefs2="a1 a5" order="1"></bond><bond id="b3" atomRefs2="a2 a3" order="2"></bond><bond id="b4" atomRefs2="a3 a4" order="1"></bond><bond id="b5" atomRefs2="a4 a5" order="2"></bond><bond id="b6" atomRefs2="a5 a6" order="1"></bond><bond id="b7" atomRefs2="a6 a7" order="2"></bond><bond id="b8" atomRefs2="a7 a8" order="1"></bond><bond id="b9" atomRefs2="a7 a9" order="1"></bond><bond id="b10" atomRefs2="a9 a10" order="2"></bond><bond id="b11" atomRefs2="a10 a11" order="1"></bond><bond id="b12" atomRefs2="a11 a8" order="2"></bond><bond id="b13" atomRefs2="a1 a12" order="1"></bond><bond id="b14" atomRefs2="a8 a12" order="1"></bond><bond id="b15" atomRefs2="a12 a13" order="1"></bond><bond id="b16" atomRefs2="a12 a14" order="1"></bond><bond id="b17" atomRefs2="a6 a15" order="1"></bond><bond id="b18" atomRefs2="a4 a16" order="1"></bond><bond id="b19" atomRefs2="a3 a17" order="1"></bond><bond id="b20" atomRefs2="a2 a18" order="1"></bond><bond id="b21" atomRefs2="a11 a19" order="1"></bond><bond id="b22" atomRefs2="a10 a20" order="1"></bond><bond id="b23" atomRefs2="a9 a21" order="1"></bond></bondArray></molecule></MChemicalStruct></MDocument>
</cml>
-->
  <defs
     id="genericDefs">
    <linearGradient
       y2="80.332802"
       x2="133.5889"
       y1="80.633797"
       x1="132.66229"
       spreadMethod="pad"
       gradientUnits="userSpaceOnUse"
       id="linearGradient4880"
       xlink:href="#1844091758969-linearGradient1" />
    <linearGradient
       y2="80.332802"
       x2="133.5889"
       y1="80.633797"
       x1="132.66229"
       spreadMethod="pad"
       gradientUnits="userSpaceOnUse"
       id="linearGradient4882"
       xlink:href="#1844091758969-linearGradient1" />
    <linearGradient
       y2="80.332802"
       x2="133.5889"
       y1="80.633797"
       x1="132.66229"
       spreadMethod="pad"
       gradientUnits="userSpaceOnUse"
       id="linearGradient4884"
       xlink:href="#1844091758969-linearGradient1" />
    <linearGradient
       y2="100.0145"
       x2="119.7586"
       y1="99.040298"
       x1="119.7586"
       spreadMethod="pad"
       gradientUnits="userSpaceOnUse"
       id="linearGradient4886"
       xlink:href="#1844091758286-linearGradient1" />
    <linearGradient
       y2="100.0145"
       x2="119.7586"
       y1="99.040298"
       x1="119.7586"
       spreadMethod="pad"
       gradientUnits="userSpaceOnUse"
       id="linearGradient4888"
       xlink:href="#1844091758286-linearGradient1" />
    <linearGradient
       y2="100.0145"
       x2="119.7586"
       y1="99.040298"
       x1="119.7586"
       spreadMethod="pad"
       gradientUnits="userSpaceOnUse"
       id="linearGradient4890"
       xlink:href="#1844091758286-linearGradient1" />
    <linearGradient
       y2="99.040298"
       x2="79.244499"
       y1="100.0145"
       x1="79.244499"
       spreadMethod="pad"
       gradientUnits="userSpaceOnUse"
       id="linearGradient4892"
       xlink:href="#1844091758137-linearGradient1" />
    <linearGradient
       y2="99.040298"
       x2="79.244499"
       y1="100.0145"
       x1="79.244499"
       spreadMethod="pad"
       gradientUnits="userSpaceOnUse"
       id="linearGradient4894"
       xlink:href="#1844091758137-linearGradient1" />
    <linearGradient
       y2="99.040298"
       x2="79.244499"
       y1="100.0145"
       x1="79.244499"
       spreadMethod="pad"
       gradientUnits="userSpaceOnUse"
       id="linearGradient4896"
       xlink:href="#1844091758137-linearGradient1" />
    <linearGradient
       y2="80.633797"
       x2="66.340797"
       y1="80.332802"
       x1="65.414299"
       spreadMethod="pad"
       gradientUnits="userSpaceOnUse"
       id="linearGradient4898"
       xlink:href="#1844091758544-linearGradient1" />
    <linearGradient
       y2="80.633797"
       x2="66.340797"
       y1="80.332802"
       x1="65.414299"
       spreadMethod="pad"
       gradientUnits="userSpaceOnUse"
       id="linearGradient4900"
       xlink:href="#1844091758544-linearGradient1" />
    <linearGradient
       y2="80.633797"
       x2="66.340797"
       y1="80.332802"
       x1="65.414299"
       spreadMethod="pad"
       gradientUnits="userSpaceOnUse"
       id="linearGradient4902"
       xlink:href="#1844091758544-linearGradient1" />
    <linearGradient
       y2="78.5886"
       x2="108.9543"
       y1="79.075699"
       x1="109.798"
       spreadMethod="pad"
       gradientUnits="userSpaceOnUse"
       id="linearGradient4904"
       xlink:href="#1844091758110-linearGradient1" />
    <linearGradient
       y2="78.5886"
       x2="108.9543"
       y1="79.075699"
       x1="109.798"
       spreadMethod="pad"
       gradientUnits="userSpaceOnUse"
       id="linearGradient4906"
       xlink:href="#1844091758110-linearGradient1" />
    <linearGradient
       y2="78.5886"
       x2="108.9543"
       y1="79.075699"
       x1="109.798"
       spreadMethod="pad"
       gradientUnits="userSpaceOnUse"
       id="linearGradient4908"
       xlink:href="#1844091758110-linearGradient1" />
    <linearGradient
       y2="78.5886"
       x2="90.048798"
       y1="79.075699"
       x1="89.205101"
       spreadMethod="pad"
       gradientUnits="userSpaceOnUse"
       id="linearGradient4910"
       xlink:href="#1844091758289-linearGradient1" />
    <linearGradient
       y2="78.5886"
       x2="90.048798"
       y1="79.075699"
       x1="89.205101"
       spreadMethod="pad"
       gradientUnits="userSpaceOnUse"
       id="linearGradient4912"
       xlink:href="#1844091758289-linearGradient1" />
    <linearGradient
       y2="78.5886"
       x2="90.048798"
       y1="79.075699"
       x1="89.205101"
       spreadMethod="pad"
       gradientUnits="userSpaceOnUse"
       id="linearGradient4914"
       xlink:href="#1844091758289-linearGradient1" />
    <linearGradient
       y2="62.341999"
       x2="105.2382"
       y1="63.202202"
       x1="104.7808"
       spreadMethod="pad"
       gradientUnits="userSpaceOnUse"
       id="linearGradient4916"
       xlink:href="#1844091758282-linearGradient1" />
    <linearGradient
       y2="62.341999"
       x2="105.2382"
       y1="63.202202"
       x1="104.7808"
       spreadMethod="pad"
       gradientUnits="userSpaceOnUse"
       id="linearGradient4918"
       xlink:href="#1844091758282-linearGradient1" />
    <linearGradient
       y2="62.341999"
       x2="105.2382"
       y1="63.202202"
       x1="104.7808"
       spreadMethod="pad"
       gradientUnits="userSpaceOnUse"
       id="linearGradient4920"
       xlink:href="#1844091758282-linearGradient1" />
    <linearGradient
       y2="62.341999"
       x2="93.7649"
       y1="63.202202"
       x1="94.222298"
       spreadMethod="pad"
       gradientUnits="userSpaceOnUse"
       id="linearGradient4922"
       xlink:href="#1844091758428-linearGradient1" />
    <linearGradient
       y2="62.341999"
       x2="93.7649"
       y1="63.202202"
       x1="94.222298"
       spreadMethod="pad"
       gradientUnits="userSpaceOnUse"
       id="linearGradient4924"
       xlink:href="#1844091758428-linearGradient1" />
    <linearGradient
       y2="62.341999"
       x2="93.7649"
       y1="63.202202"
       x1="94.222298"
       spreadMethod="pad"
       gradientUnits="userSpaceOnUse"
       id="linearGradient4926"
       xlink:href="#1844091758428-linearGradient1" />
  </defs>
  <g
     transform="translate(-133.2641,-36.890415)"
     id="g5">
    <defs
       id="1844091758642-defs1">
      <linearGradient
         spreadMethod="pad"
         id="1844091758969-linearGradient1"
         y2="80.332802"
         y1="80.633797"
         x2="133.5889"
         gradientUnits="userSpaceOnUse"
         x1="132.66229">
        <stop
           id="stop9"
           offset="0%"
           stop-color="rgb(51,51,153)"
           stop-opacity="1" />
        <stop
           id="stop11"
           offset="100%"
           stop-color="black"
           stop-opacity="1" />
      </linearGradient>
      <linearGradient
         spreadMethod="pad"
         id="1844091758286-linearGradient1"
         y2="100.0145"
         y1="99.040298"
         x2="119.7586"
         gradientUnits="userSpaceOnUse"
         x1="119.7586">
        <stop
           id="stop14"
           offset="0%"
           stop-color="rgb(51,51,153)"
           stop-opacity="1" />
        <stop
           id="stop16"
           offset="100%"
           stop-color="black"
           stop-opacity="1" />
      </linearGradient>
      <linearGradient
         spreadMethod="pad"
         id="1844091758137-linearGradient1"
         y2="99.040298"
         y1="100.0145"
         x2="79.244499"
         gradientUnits="userSpaceOnUse"
         x1="79.244499">
        <stop
           id="stop19"
           offset="0%"
           stop-color="black"
           stop-opacity="1" />
        <stop
           id="stop21"
           offset="100%"
           stop-color="rgb(51,51,153)"
           stop-opacity="1" />
      </linearGradient>
      <linearGradient
         spreadMethod="pad"
         id="1844091758544-linearGradient1"
         y2="80.633797"
         y1="80.332802"
         x2="66.340797"
         gradientUnits="userSpaceOnUse"
         x1="65.414299">
        <stop
           id="stop24"
           offset="0%"
           stop-color="black"
           stop-opacity="1" />
        <stop
           id="stop26"
           offset="100%"
           stop-color="rgb(51,51,153)"
           stop-opacity="1" />
      </linearGradient>
      <linearGradient
         spreadMethod="pad"
         id="1844091758110-linearGradient1"
         y2="78.5886"
         y1="79.075699"
         x2="108.9543"
         gradientUnits="userSpaceOnUse"
         x1="109.798">
        <stop
           id="stop29"
           offset="0%"
           stop-color="rgb(51,51,153)"
           stop-opacity="1" />
        <stop
           id="stop31"
           offset="100%"
           stop-color="rgb(0,153,0)"
           stop-opacity="1" />
      </linearGradient>
      <linearGradient
         spreadMethod="pad"
         id="1844091758289-linearGradient1"
         y2="78.5886"
         y1="79.075699"
         x2="90.048798"
         gradientUnits="userSpaceOnUse"
         x1="89.205101">
        <stop
           id="stop34"
           offset="0%"
           stop-color="rgb(51,51,153)"
           stop-opacity="1" />
        <stop
           id="stop36"
           offset="100%"
           stop-color="rgb(0,153,0)"
           stop-opacity="1" />
      </linearGradient>
      <linearGradient
         spreadMethod="pad"
         id="1844091758282-linearGradient1"
         y2="62.341999"
         y1="63.202202"
         x2="105.2382"
         gradientUnits="userSpaceOnUse"
         x1="104.7808">
        <stop
           id="stop39"
           offset="0%"
           stop-color="rgb(0,153,0)"
           stop-opacity="1" />
        <stop
           id="stop41"
           offset="100%"
           stop-color="rgb(153,102,0)"
           stop-opacity="1" />
      </linearGradient>
      <linearGradient
         spreadMethod="pad"
         id="1844091758428-linearGradient1"
         y2="62.341999"
         y1="63.202202"
         x2="93.7649"
         gradientUnits="userSpaceOnUse"
         x1="94.222298">
        <stop
           id="stop44"
           offset="0%"
           stop-color="rgb(0,153,0)"
           stop-opacity="1" />
        <stop
           id="stop46"
           offset="100%"
           stop-color="rgb(153,102,0)"
           stop-opacity="1" />
      </linearGradient>
      <clipPath
         id="1844091758194-clipPath1"
         clipPathUnits="userSpaceOnUse">
        <path
           id="path49"
           d="M 0,0 H 200 V 200 H 0 Z" />
      </clipPath>
      <clipPath
         id="1844091758637-clipPath1"
         clipPathUnits="userSpaceOnUse">
        <path
           id="path52"
           d="m -116.2586,-79.3265 h 200 v 200 h -200 z" />
      </clipPath>
      <clipPath
         id="18440917584-clipPath1"
         clipPathUnits="userSpaceOnUse">
        <path
           id="path55"
           d="m -75.7445,-79.3265 h 200 v 200 h -200 z" />
      </clipPath>
      <clipPath
         id="1844091758210-clipPath1"
         clipPathUnits="userSpaceOnUse">
        <path
           id="path58"
           d="m -97.0016,-67.6311 h 200 v 200 h -200 z" />
      </clipPath>
      <clipPath
         id="1844091758941-clipPath1"
         clipPathUnits="userSpaceOnUse">
        <path
           id="path61"
           d="m -107.9829,-46.9782 h 200 v 200 h -200 z" />
      </clipPath>
      <clipPath
         id="1844091758955-clipPath1"
         clipPathUnits="userSpaceOnUse">
        <path
           id="path64"
           d="m -86.0202,-46.9782 h 200 v 200 h -200 z" />
      </clipPath>
      <clipPath
         id="1844091758526-clipPath1"
         clipPathUnits="userSpaceOnUse">
        <path
           id="path67"
           d="m -96.0328,-137.8035 h 200 v 200 h -200 z" />
      </clipPath>
      <clipPath
         id="1844091758250-clipPath1"
         clipPathUnits="userSpaceOnUse">
        <path
           id="path70"
           d="m -108.5875,-143.7386 h 200 v 200 h -200 z" />
      </clipPath>
      <clipPath
         id="1844091758812-clipPath1"
         clipPathUnits="userSpaceOnUse">
        <path
           id="path73"
           d="m -145.764,-132.1915 h 200 v 200 h -200 z" />
      </clipPath>
      <clipPath
         id="1844091758887-clipPath1"
         clipPathUnits="userSpaceOnUse">
        <path
           id="path76"
           d="m -158.3187,-138.1265 h 200 v 200 h -200 z" />
      </clipPath>
      <clipPath
         id="1844091758661-clipPath1"
         clipPathUnits="userSpaceOnUse">
        <path
           id="path79"
           d="m -175.5473,-93.4669 h 200 v 200 h -200 z" />
      </clipPath>
      <clipPath
         id="1844091758752-clipPath1"
         clipPathUnits="userSpaceOnUse">
        <path
           id="path82"
           d="m -188.102,-99.4019 h 200 v 200 h -200 z" />
      </clipPath>
      <clipPath
         id="1844091758139-clipPath1"
         clipPathUnits="userSpaceOnUse">
        <path
           id="path85"
           d="m -145.764,-49.8523 h 200 v 200 h -200 z" />
      </clipPath>
      <clipPath
         id="1844091758371-clipPath1"
         clipPathUnits="userSpaceOnUse">
        <path
           id="path88"
           d="m -158.3187,-55.7874 h 200 v 200 h -200 z" />
      </clipPath>
      <clipPath
         id="1844091758937-clipPath1"
         clipPathUnits="userSpaceOnUse">
        <path
           id="path91"
           d="m -37.3876,-49.7289 h 200 v 200 h -200 z" />
      </clipPath>
      <clipPath
         id="1844091758837-clipPath1"
         clipPathUnits="userSpaceOnUse">
        <path
           id="path94"
           d="m -43.7469,-55.7874 h 200 v 200 h -200 z" />
      </clipPath>
      <clipPath
         id="1844091758203-clipPath1"
         clipPathUnits="userSpaceOnUse">
        <path
           id="path97"
           d="m -46.7704,-49.8523 h 200 v 200 h -200 z" />
      </clipPath>
      <clipPath
         id="1844091758466-clipPath1"
         clipPathUnits="userSpaceOnUse">
        <path
           id="path100"
           d="m -7.4761,-90.8985 h 200 v 200 h -200 z" />
      </clipPath>
      <clipPath
         id="1844091758514-clipPath1"
         clipPathUnits="userSpaceOnUse">
        <path
           id="path103"
           d="m -13.8355,-96.9569 h 200 v 200 h -200 z" />
      </clipPath>
      <clipPath
         id="1844091758427-clipPath1"
         clipPathUnits="userSpaceOnUse">
        <path
           id="path106"
           d="m -16.8589,-91.0219 h 200 v 200 h -200 z" />
      </clipPath>
      <clipPath
         id="1844091758550-clipPath1"
         clipPathUnits="userSpaceOnUse">
        <path
           id="path109"
           d="m -38.5617,-132.4159 h 200 v 200 h -200 z" />
      </clipPath>
      <clipPath
         id="1844091758926-clipPath1"
         clipPathUnits="userSpaceOnUse">
        <path
           id="path112"
           d="m -44.9211,-138.4743 h 200 v 200 h -200 z" />
      </clipPath>
      <clipPath
         id="1844091758838-clipPath1"
         clipPathUnits="userSpaceOnUse">
        <path
           id="path115"
           d="m -47.9445,-132.5393 h 200 v 200 h -200 z" />
      </clipPath>
    </defs>
    <g
       transform="matrix(1,0,0,-1,0,186.0685)"
       id="g4814">
      <g
         transform="matrix(-1,0,0,1,198.83482,0)"
         style="font-size:9px;font-family:sans-serif;fill:#009900;stroke:#009900;text-rendering:geometricPrecision"
         font-size="9px"
         id="g231" />
      <g
         id="g5031">
        <g
           id="g3627">
          <g
             transform="matrix(-1,0,0,1,320.83482,0)"
             style="fill:url(#linearGradient4882);stroke:url(#linearGradient4884);text-rendering:geometricPrecision"
             id="g117">
            <path
               style="fill:url(#linearGradient4880);stroke:none"
               d="m 124.3971,83.8315 17.758,-5.7699 c 0.2559,-0.0832 0.3959,-0.3579 0.3128,-0.6138 -0.0832,-0.2559 -0.3579,-0.3959 -0.6138,-0.3127 L 124.096,82.905 c -0.2559,0.0832 -0.3959,0.3579 -0.3127,0.6138 0.0831,0.2559 0.3579,0.3959 0.6138,0.3127 z"
               clip-path="url(#1844091758194-clipPath1)"
               id="path119" />
          </g>
          <g
             transform="matrix(-1,0,0,1,320.83482,0)"
             style="fill:url(#linearGradient4888);stroke:url(#linearGradient4890);text-rendering:geometricPrecision"
             id="g121">
            <path
               style="fill:url(#linearGradient4886);stroke:none"
               d="m 119.2715,90.8374 v 17.3799 c 0,0.2691 0.218,0.4871 0.4871,0.4871 0.2691,0 0.4871,-0.218 0.4871,-0.4871 V 90.8374 c 0,-0.2691 -0.218,-0.4871 -0.4871,-0.4871 -0.2691,0 -0.4871,0.218 -0.4871,0.4871 z"
               clip-path="url(#1844091758194-clipPath1)"
               id="path123" />
          </g>
          <g
             transform="matrix(-1,0,0,1,320.83482,0)"
             style="text-rendering:geometricPrecision"
             id="g125">
            <path
               style="stroke:none"
               d="m 142.3987,77.312 c -0.1582,-0.2177 -0.4627,-0.2659 -0.6804,-0.1077 -0.2177,0.1581 -0.2659,0.4627 -0.1078,0.6803 l 13.7488,18.9236 c 0.1582,0.2177 0.4627,0.2659 0.6804,0.1078 0.2177,-0.1582 0.2659,-0.4627 0.1078,-0.6804 z m -1.3219,5.3437 c -0.1582,-0.2177 -0.4627,-0.266 -0.6804,-0.1078 -0.2177,0.1581 -0.2659,0.4627 -0.1078,0.6804 l 9.5801,13.1858 c 0.1582,0.2177 0.4627,0.266 0.6804,0.1078 0.2177,-0.1582 0.2659,-0.4627 0.1078,-0.6804 z"
               clip-path="url(#1844091758194-clipPath1)"
               id="path127" />
          </g>
          <g
             transform="matrix(-1,0,0,1,320.83482,0)"
             style="text-rendering:geometricPrecision"
             id="g129">
            <path
               style="stroke:none"
               d="m 155.3593,96.2356 -13.7488,18.9236 c -0.1581,0.2176 -0.1099,0.5222 0.1078,0.6803 0.2177,0.1582 0.5222,0.11 0.6804,-0.1077 l 13.7488,-18.9236 c 0.1581,-0.2177 0.1099,-0.5222 -0.1078,-0.6804 -0.2177,-0.1581 -0.5222,-0.1099 -0.6804,0.1078 z"
               clip-path="url(#1844091758194-clipPath1)"
               id="path131" />
          </g>
          <g
             transform="matrix(-1,0,0,1,320.83482,0)"
             style="text-rendering:geometricPrecision"
             id="g133">
            <path
               style="stroke:none"
               d="m 141.8541,115.9087 c 0.2559,0.0832 0.5306,-0.0568 0.6138,-0.3127 0.0831,-0.2559 -0.0569,-0.5306 -0.3128,-0.6138 l -22.246,-7.2281 c -0.2559,-0.0832 -0.5306,0.0568 -0.6138,0.3127 -0.0831,0.2559 0.0569,0.5306 0.3128,0.6138 z m -2.0715,-5.1 c 0.2559,0.0831 0.5306,-0.0569 0.6138,-0.3128 0.0831,-0.2559 -0.0568,-0.5306 -0.3128,-0.6138 l -15.5009,-5.0365 c -0.2559,-0.0832 -0.5306,0.0568 -0.6137,0.3127 -0.0832,0.2559 0.0568,0.5307 0.3127,0.6138 z"
               clip-path="url(#1844091758194-clipPath1)"
               id="path135" />
          </g>
          <g
             transform="matrix(-1,0,0,1,320.83482,0)"
             style="text-rendering:geometricPrecision"
             id="g137">
            <path
               style="stroke:none"
               d="M 119.5151,107.7955 99.258,119.4909 c -0.233,0.1345 -0.3128,0.4323 -0.1783,0.6654 0.1346,0.233 0.4324,0.3128 0.6654,0.1783 l 20.2571,-11.6954 c 0.233,-0.1346 0.3128,-0.4324 0.1783,-0.6654 -0.1346,-0.2331 -0.4324,-0.3129 -0.6654,-0.1783 z"
               clip-path="url(#1844091758194-clipPath1)"
               id="path139" />
          </g>
          <g
             transform="matrix(-1,0,0,1,320.83482,0)"
             style="text-rendering:geometricPrecision"
             id="g141">
            <path
               style="stroke:none"
               d="m 99.258,120.3346 c 0.233,0.1345 0.5309,0.0547 0.6654,-0.1783 0.1346,-0.2331 0.0547,-0.5309 -0.1783,-0.6654 l -20.257,-11.6954 c -0.233,-0.1346 -0.5309,-0.0548 -0.6654,0.1783 -0.1346,0.233 -0.0547,0.5308 0.1783,0.6654 z m -0.4218,-5.1053 c 0.233,0.1346 0.5308,0.0548 0.6654,-0.1783 0.1345,-0.233 0.0547,-0.5308 -0.1783,-0.6654 l -15.203,-8.7774 c -0.2331,-0.1346 -0.5309,-0.0548 -0.6654,0.1783 -0.1346,0.233 -0.0548,0.5308 0.1783,0.6654 z"
               clip-path="url(#1844091758194-clipPath1)"
               id="path143" />
          </g>
          <g
             transform="matrix(-1,0,0,1,320.83482,0)"
             style="fill:url(#linearGradient4894);stroke:url(#linearGradient4896);text-rendering:geometricPrecision"
             id="g145">
            <path
               style="fill:url(#linearGradient4892);stroke:none"
               d="M 79.7316,108.2173 V 90.8374 c 0,-0.2691 -0.218,-0.4871 -0.4871,-0.4871 -0.2691,0 -0.4871,0.218 -0.4871,0.4871 v 17.3799 c 0,0.2691 0.218,0.4871 0.4871,0.4871 0.2691,0 0.4871,-0.218 0.4871,-0.4871 z"
               clip-path="url(#1844091758194-clipPath1)"
               id="path147" />
          </g>
          <g
             transform="matrix(-1,0,0,1,320.83482,0)"
             style="text-rendering:geometricPrecision"
             id="g149">
            <path
               style="stroke:none"
               d="m 79.094,107.7541 -22.246,7.2281 c -0.2559,0.0832 -0.3959,0.3579 -0.3127,0.6138 0.0831,0.2559 0.3579,0.3959 0.6138,0.3127 l 22.246,-7.2281 c 0.2559,-0.0832 0.3958,-0.3579 0.3127,-0.6138 -0.0832,-0.2559 -0.3579,-0.3959 -0.6138,-0.3127 z"
               clip-path="url(#1844091758194-clipPath1)"
               id="path151" />
          </g>
          <g
             transform="matrix(-1,0,0,1,320.83482,0)"
             style="text-rendering:geometricPrecision"
             id="g153">
            <path
               style="stroke:none"
               d="m 56.6045,115.7318 c 0.1581,0.2177 0.4627,0.2659 0.6803,0.1077 0.2177,-0.1581 0.266,-0.4627 0.1078,-0.6803 L 43.6438,96.2356 c -0.1581,-0.2177 -0.4627,-0.2659 -0.6804,-0.1078 -0.2176,0.1582 -0.2659,0.4627 -0.1077,0.6804 z m 1.3219,-5.3436 c 0.1581,0.2176 0.4627,0.2659 0.6803,0.1077 0.2177,-0.1581 0.266,-0.4627 0.1078,-0.6804 L 49.1344,96.6297 c -0.1581,-0.2177 -0.4627,-0.266 -0.6804,-0.1078 -0.2177,0.1582 -0.2659,0.4627 -0.1077,0.6804 z"
               clip-path="url(#1844091758194-clipPath1)"
               id="path155" />
          </g>
          <g
             transform="matrix(-1,0,0,1,320.83482,0)"
             style="text-rendering:geometricPrecision"
             id="g157">
            <path
               style="stroke:none"
               d="M 43.6438,96.8082 57.3926,77.8846 c 0.1582,-0.2176 0.1099,-0.5222 -0.1078,-0.6803 -0.2176,-0.1582 -0.5222,-0.11 -0.6803,0.1077 L 42.8557,96.2356 c -0.1582,0.2177 -0.1099,0.5222 0.1077,0.6804 0.2177,0.1581 0.5223,0.1099 0.6804,-0.1078 z"
               clip-path="url(#1844091758194-clipPath1)"
               id="path159" />
          </g>
          <g
             transform="matrix(-1,0,0,1,320.83482,0)"
             style="fill:url(#linearGradient4900);stroke:url(#linearGradient4902);text-rendering:geometricPrecision"
             id="g161">
            <path
               style="fill:url(#linearGradient4898);stroke:none"
               d="m 57.1491,77.1351 c -0.2559,-0.0832 -0.5307,0.0568 -0.6138,0.3127 -0.0832,0.2559 0.0568,0.5306 0.3127,0.6138 l 17.7581,5.7699 c 0.2559,0.0832 0.5306,-0.0568 0.6137,-0.3127 0.0832,-0.2559 -0.0568,-0.5306 -0.3127,-0.6138 z m 2.0714,5.1001 c -0.2559,-0.0832 -0.5306,0.0568 -0.6138,0.3127 -0.0831,0.2559 0.0569,0.5306 0.3128,0.6138 l 14.3855,4.6741 c 0.2559,0.0832 0.5306,-0.0568 0.6138,-0.3127 0.0831,-0.2559 -0.0569,-0.5307 -0.3128,-0.6138 z"
               clip-path="url(#1844091758194-clipPath1)"
               id="path163" />
          </g>
          <g
             transform="matrix(-1,0,0,1,320.83482,0)"
             style="fill:url(#linearGradient4906);stroke:url(#linearGradient4908);text-rendering:geometricPrecision"
             id="g165">
            <path
               style="fill:url(#linearGradient4904);stroke:none"
               d="m 115.5869,81.8555 -11.9343,-6.8903 c -0.233,-0.1345 -0.5309,-0.0547 -0.6654,0.1783 -0.1345,0.233 -0.0547,0.5309 0.1783,0.6654 l 11.9343,6.8903 c 0.233,0.1345 0.5308,0.0547 0.6654,-0.1783 0.1345,-0.2331 0.0547,-0.5309 -0.1783,-0.6654 z"
               clip-path="url(#1844091758194-clipPath1)"
               id="path167" />
          </g>
          <g
             transform="matrix(-1,0,0,1,320.83482,0)"
             style="fill:url(#linearGradient4912);stroke:url(#linearGradient4914);text-rendering:geometricPrecision"
             id="g169">
            <path
               style="fill:url(#linearGradient4910);stroke:none"
               d="m 83.9034,82.6992 11.9342,-6.8903 c 0.2331,-0.1345 0.3129,-0.4324 0.1783,-0.6654 -0.1345,-0.233 -0.4324,-0.3128 -0.6654,-0.1783 l -11.9342,6.8903 c -0.233,0.1345 -0.3129,0.4323 -0.1783,0.6654 0.1345,0.233 0.4324,0.3128 0.6654,0.1783 z"
               clip-path="url(#1844091758194-clipPath1)"
               id="path171" />
          </g>
          <g
             transform="matrix(-1,0,0,1,320.83482,0)"
             style="fill:url(#linearGradient4918);stroke:url(#linearGradient4920);text-rendering:geometricPrecision"
             id="g173">
            <path
               style="fill:url(#linearGradient4916);stroke:none"
               d="m 102.5969,68.3471 5.6854,-10.6925 c 0.1263,-0.2376 0.0361,-0.5325 -0.2014,-0.6588 -0.2376,-0.1263 -0.5325,-0.0362 -0.6588,0.2014 l -5.6853,10.6925 c -0.1263,0.2376 -0.0362,0.5325 0.2014,0.6588 0.2376,0.1263 0.5324,0.0362 0.6587,-0.2014 z"
               clip-path="url(#1844091758194-clipPath1)"
               id="path175" />
          </g>
          <g
             transform="matrix(-1,0,0,1,320.83482,0)"
             style="fill:url(#linearGradient4924);stroke:url(#linearGradient4926);text-rendering:geometricPrecision"
             id="g177">
            <path
               style="fill:url(#linearGradient4922);stroke:none"
               d="M 97.2664,67.8897 91.581,57.1972 c -0.1263,-0.2376 -0.4211,-0.3277 -0.6587,-0.2014 -0.2376,0.1263 -0.3277,0.4212 -0.2014,0.6588 l 5.6853,10.6925 c 0.1263,0.2376 0.4212,0.3277 0.6588,0.2014 0.2375,-0.1263 0.3277,-0.4212 0.2014,-0.6588 z"
               clip-path="url(#1844091758194-clipPath1)"
               id="path179" />
          </g>
          <g
             transform="matrix(-1,0,0,1,320.83482,0)"
             style="text-rendering:geometricPrecision"
             id="g181">
            <path
               style="stroke:none"
               d="m 99.0145,119.9127 v 17.253 c 0,0.2691 0.218,0.4871 0.4871,0.4871 0.269,0 0.4871,-0.218 0.4871,-0.4871 v -17.253 c 0,-0.2691 -0.2181,-0.4871 -0.4871,-0.4871 -0.2691,0 -0.4871,0.218 -0.4871,0.4871 z"
               clip-path="url(#1844091758194-clipPath1)"
               id="path183" />
          </g>
          <g
             transform="matrix(-1,0,0,1,320.83482,0)"
             style="text-rendering:geometricPrecision"
             id="g185">
            <path
               style="stroke:none"
               d="m 141.5413,115.596 5.318,16.3668 c 0.0831,0.2559 0.3578,0.3959 0.6137,0.3128 0.2559,-0.0832 0.3959,-0.3579 0.3128,-0.6138 l -5.3179,-16.3668 c -0.0832,-0.256 -0.3579,-0.3959 -0.6138,-0.3128 -0.2559,0.0832 -0.3959,0.3579 -0.3128,0.6138 z"
               clip-path="url(#1844091758194-clipPath1)"
               id="path187" />
          </g>
          <g
             transform="matrix(-0.99462908,-0.10350358,-0.10350358,0.99462908,329.50247,16.639113)"
             style="text-rendering:geometricPrecision"
             id="g189">
            <path
               style="stroke:none"
               d="m 155.7025,97.0063 18.6412,1.9593 c 0.2676,0.0281 0.5072,-0.1659 0.5353,-0.4335 0.0282,-0.2676 -0.1659,-0.5072 -0.4335,-0.5354 l -18.6412,-1.9592 c -0.2676,-0.0282 -0.5072,0.1659 -0.5353,0.4335 -0.0282,0.2676 0.1659,0.5072 0.4335,0.5353 z"
               clip-path="url(#1844091758194-clipPath1)"
               id="path191" />
          </g>
          <g
             transform="matrix(-1,0,0,1,320.83482,0)"
             style="text-rendering:geometricPrecision"
             id="g193">
            <path
               style="stroke:none"
               d="m 142.4679,77.7489 5.2735,-16.2304 c 0.0832,-0.2559 -0.0568,-0.5306 -0.3127,-0.6138 -0.2559,-0.0831 -0.5306,0.0568 -0.6138,0.3127 l -5.2736,16.2304 c -0.0831,0.2559 0.0569,0.5306 0.3128,0.6138 0.2559,0.0831 0.5306,-0.0568 0.6138,-0.3127 z"
               clip-path="url(#1844091758194-clipPath1)"
               id="path195" />
          </g>
          <g
             transform="matrix(-1,0,0,1,320.83482,0)"
             style="text-rendering:geometricPrecision"
             id="g197">
            <path
               style="stroke:none"
               d="M 57.4618,77.4478 52.1882,61.2174 c -0.0831,-0.2559 -0.3579,-0.3958 -0.6138,-0.3127 -0.2559,0.0832 -0.3958,0.3579 -0.3127,0.6138 l 5.2736,16.2304 c 0.0831,0.2559 0.3579,0.3958 0.6138,0.3127 0.2559,-0.0832 0.3958,-0.3579 0.3127,-0.6138 z"
               clip-path="url(#1844091758194-clipPath1)"
               id="path199" />
          </g>
          <g
             transform="matrix(-1,0,0,1,320.83482,0)"
             style="text-rendering:geometricPrecision"
             id="g201">
            <path
               style="stroke:none"
               d="M 43.2498,96.0348 H 24.4402 c -0.2691,0 -0.4871,0.218 -0.4871,0.4871 0,0.2691 0.218,0.4871 0.4871,0.4871 h 18.8096 c 0.269,0 0.4871,-0.218 0.4871,-0.4871 0,-0.2691 -0.2181,-0.4871 -0.4871,-0.4871 z"
               clip-path="url(#1844091758194-clipPath1)"
               id="path203" />
          </g>
          <g
             transform="matrix(-1,0,0,1,320.83482,0)"
             style="text-rendering:geometricPrecision"
             id="g205">
            <path
               style="stroke:none"
               d="m 56.528,115.3194 -4.4591,16.6418 c -0.0697,0.2599 0.0845,0.5269 0.3444,0.5965 0.2599,0.0697 0.527,-0.0845 0.5966,-0.3444 l 4.4591,-16.6418 c 0.0697,-0.2599 -0.0845,-0.5269 -0.3444,-0.5965 -0.2599,-0.0697 -0.5269,0.0845 -0.5966,0.3444 z"
               clip-path="url(#1844091758194-clipPath1)"
               id="path207" />
          </g>
          <g
             transform="matrix(-1,0,0,1,320.83482,0)"
             style="fill:#ffffff;stroke:#ffffff;text-rendering:geometricPrecision"
             id="g209">
            <path
               style="stroke:none"
               d="m 119.3055,80.764 c -1.1218,0 -2.0313,0.9094 -2.0313,2.0312 v 4.0625 c 0,1.1219 0.9095,2.0313 2.0313,2.0313 h 0.9062 c 1.1219,0 2.0313,-0.9094 2.0313,-2.0313 v -4.0625 c 0,-1.1218 -0.9094,-2.0312 -2.0313,-2.0312 z"
               clip-path="url(#1844091758194-clipPath1)"
               id="path211" />
          </g>
          <g
             style="font-size:9px;font-family:sans-serif;fill:#333399;stroke:#333399;text-rendering:geometricPrecision"
             font-size="9px"
             transform="matrix(1,0,0,-1,197.8438,90.765465)"
             id="g213">
            <text
               style="line-height:0%;stroke:none"
               x="0"
               xml:space="preserve"
               y="9"
               clip-path="url(#1844091758637-clipPath1)"
               id="text215">N</text>
          </g>
          <g
             transform="matrix(1,0,0,-1,162.47812,170.6438)"
             style="font-size:9px;font-family:sans-serif;fill:#ffffff;stroke:#ffffff;text-rendering:geometricPrecision"
             font-size="9px"
             id="g217">
            <path
               style="stroke:none"
               d="m 78.7914,80.764 c -1.1218,0 -2.0313,0.9094 -2.0313,2.0312 v 4.0625 c 0,1.1219 0.9095,2.0313 2.0313,2.0313 h 0.9062 c 1.1219,0 2.0313,-0.9094 2.0313,-2.0313 v -4.0625 c 0,-1.1218 -0.9094,-2.0312 -2.0313,-2.0312 z"
               clip-path="url(#1844091758194-clipPath1)"
               id="path219" />
            <text
               style="line-height:0%;fill:#333399;stroke:none"
               x="0"
               y="9"
               transform="translate(75.7445,79.3265)"
               clip-path="url(#18440917584-clipPath1)"
               xml:space="preserve"
               id="text221">N</text>
          </g>
          <g
             style="font-size:9px;font-family:sans-serif;fill:#333399;stroke:#333399;text-rendering:geometricPrecision"
             font-size="9px"
             id="g223"
             transform="translate(122)">
            <path
               transform="matrix(-1,0,0,1,194.83482,9.8616)"
               style="stroke:none"
               d="m 80.7292,76.7134 v 1.438 h -1.438 v 0.4794 h 1.438 v 1.438 h 0.4793 v -1.438 h 1.438 v -0.4794 h -1.438 v -1.438 z m 2.876,-0.9586 v 5.2726 h -5.2726 v -5.2726 z m -5.2726,0 v 0 5.2726 0 h 5.2726 v 0 -5.2726 0 z"
               clip-path="url(#1844091758194-clipPath1)"
               id="path225" />
            <path
               transform="matrix(-1,0,0,1,198.83482,0)"
               style="fill:#ffffff;stroke:none"
               d="m 99.5016,69.0686 c -1.0917,0 -1.9766,0.9094 -1.9766,2.0312 v 4.0625 c 0,1.1219 0.8849,2.0313 1.9766,2.0313 1.0916,0 1.9765,-0.9094 1.9765,-2.0313 v -4.0625 c 0,-1.1218 -0.8849,-2.0312 -1.9765,-2.0312 z"
               clip-path="url(#1844091758194-clipPath1)"
               id="path227" />
            <text
               style="line-height:0%;fill:#009900;stroke:none"
               x="0"
               y="9"
               transform="matrix(1,0,0,-1,95.41281,79.070065)"
               clip-path="url(#1844091758210-clipPath1)"
               xml:space="preserve"
               id="text229">B</text>
          </g>
          <path
             style="font-size:9px;font-family:sans-serif;fill:#ffffff;stroke:none;text-rendering:geometricPrecision"
             d="m 110.4829,48.4157 c -1.001,0 -1.8125,0.9094 -1.8125,2.0313 v 4.0625 c 0,1.1218 0.8115,2.0312 1.8125,2.0312 1.001,0 1.8125,-0.9094 1.8125,-2.0312 V 50.447 c 0,-1.1219 -0.8115,-2.0313 -1.8125,-2.0313 z"
             clip-path="url(#1844091758194-clipPath1)"
             id="path235"
             transform="matrix(-1,0,0,1,320.83482,0)" />
          <text
             style="font-size:9px;line-height:0%;font-family:sans-serif;fill:#996600;stroke:none;text-rendering:geometricPrecision"
             x="0"
             y="9"
             transform="matrix(1,0,0,-1,207.31481,58.41716)"
             clip-path="url(#1844091758941-clipPath1)"
             xml:space="preserve"
             id="text237">F</text>
          <path
             id="path4928"
             d="m 221.15056,78.425272 3.17973,-0.0043"
             style="font-size:9px;font-family:sans-serif;fill:none;fill-rule:evenodd;stroke:#009900;stroke-width:0.5;stroke-linecap:butt;stroke-linejoin:miter;stroke-miterlimit:10;stroke-dasharray:none;stroke-opacity:1;text-rendering:geometricPrecision" />
          <text
             transform="scale(1,-1)"
             id="text4930"
             y="-136.38115"
             x="166.6436"
             style="font-style:normal;font-weight:normal;line-height:0%;font-family:sans-serif;letter-spacing:0px;word-spacing:0px;fill:#000000;fill-opacity:1;stroke:none;stroke-width:1px;stroke-linecap:butt;stroke-linejoin:miter;stroke-opacity:1;text-rendering:geometricPrecision"
             xml:space="preserve"><tspan
               style="font-size:10px;line-height:1.25;fill:#e3107b;fill-opacity:1"
               y="-136.38115"
               x="166.6436"
               id="tspan4932">S<tspan
   id="tspan4934"
   style="font-size:64.99999762%;baseline-shift:sub;fill:#e3107b;fill-opacity:1">1</tspan></tspan></text>
          <text
             transform="scale(1,-1)"
             id="text4930-6"
             y="-94.724503"
             x="133.60492"
             style="font-style:normal;font-weight:normal;line-height:0%;font-family:sans-serif;letter-spacing:0px;word-spacing:0px;fill:#000000;fill-opacity:1;stroke:none;stroke-width:1px;stroke-linecap:butt;stroke-linejoin:miter;stroke-opacity:1;text-rendering:geometricPrecision"
             xml:space="preserve"><tspan
               style="font-size:10px;line-height:1.25;fill:#e3107b;fill-opacity:1"
               y="-94.724503"
               x="133.60492"
               id="tspan4932-7">S<tspan
   id="tspan4934-5"
   style="font-size:64.99999762%;baseline-shift:sub;fill:#e3107b;fill-opacity:1">2</tspan></tspan></text>
          <text
             transform="scale(1,-1)"
             id="text4930-3"
             y="-50.86454"
             x="163.46973"
             style="font-style:normal;font-weight:normal;line-height:0%;font-family:sans-serif;letter-spacing:0px;word-spacing:0px;fill:#000000;fill-opacity:1;stroke:none;stroke-width:1px;stroke-linecap:butt;stroke-linejoin:miter;stroke-opacity:1;text-rendering:geometricPrecision"
             xml:space="preserve"><tspan
               style="font-size:10px;line-height:1.25;fill:#e3107b;fill-opacity:1"
               y="-50.86454"
               x="163.46973"
               id="tspan4932-5">S<tspan
   id="tspan4934-6"
   style="font-size:64.99999762%;baseline-shift:sub;fill:#e3107b;fill-opacity:1">3</tspan></tspan></text>
          <text
             transform="scale(1,-1)"
             id="text4930-2"
             y="-50.772404"
             x="265.64066"
             style="font-style:normal;font-weight:normal;line-height:0%;font-family:sans-serif;letter-spacing:0px;word-spacing:0px;fill:#000000;fill-opacity:1;stroke:none;stroke-width:1px;stroke-linecap:butt;stroke-linejoin:miter;stroke-opacity:1;text-rendering:geometricPrecision"
             xml:space="preserve"><tspan
               style="font-size:10px;line-height:1.25;fill:#e3107b;fill-opacity:1"
               y="-50.772404"
               x="265.64066"
               id="tspan4932-9">S<tspan
   id="tspan4934-1"
   style="font-size:64.99999762%;baseline-shift:sub;fill:#e3107b;fill-opacity:1">4</tspan></tspan></text>
          <text
             transform="scale(1,-1)"
             id="text4930-27"
             y="-94.816765"
             x="298.89862"
             style="font-style:normal;font-weight:normal;line-height:0%;font-family:sans-serif;letter-spacing:0px;word-spacing:0px;fill:#000000;fill-opacity:1;stroke:none;stroke-width:1px;stroke-linecap:butt;stroke-linejoin:miter;stroke-opacity:1;text-rendering:geometricPrecision"
             xml:space="preserve"><tspan
               style="font-size:10px;line-height:1.25;fill:#e3107b;fill-opacity:1"
               y="-94.816765"
               x="298.89862"
               id="tspan4932-0">S<tspan
   id="tspan4934-9"
   style="font-size:64.99999762%;baseline-shift:sub;fill:#e3107b;fill-opacity:1">5</tspan></tspan></text>
          <text
             transform="scale(1,-1)"
             id="text4930-36"
             y="-136.47354"
             x="265.34103"
             style="font-style:normal;font-weight:normal;line-height:0%;font-family:sans-serif;letter-spacing:0px;word-spacing:0px;fill:#000000;fill-opacity:1;stroke:none;stroke-width:1px;stroke-linecap:butt;stroke-linejoin:miter;stroke-opacity:1;text-rendering:geometricPrecision"
             xml:space="preserve"><tspan
               style="font-size:10px;line-height:1.25;fill:#e3107b;fill-opacity:1"
               y="-136.47354"
               x="265.34103"
               id="tspan4932-06">S<tspan
   id="tspan4934-2"
   style="font-size:64.99999762%;baseline-shift:sub;fill:#e3107b;fill-opacity:1">6</tspan></tspan></text>
          <text
             transform="scale(1,-1)"
             id="text4930-61"
             y="-140.75621"
             x="217.30423"
             style="font-style:normal;font-weight:normal;line-height:0%;font-family:sans-serif;letter-spacing:0px;word-spacing:0px;fill:#000000;fill-opacity:1;stroke:none;stroke-width:1px;stroke-linecap:butt;stroke-linejoin:miter;stroke-opacity:1;text-rendering:geometricPrecision"
             xml:space="preserve"><tspan
               style="font-size:10px;line-height:1.25;fill:#e3107b;fill-opacity:1"
               y="-140.75621"
               x="217.30423"
               id="tspan4932-8">S<tspan
   id="tspan4934-7"
   style="font-size:64.99999762%;baseline-shift:sub;fill:#e3107b;fill-opacity:1">7</tspan></tspan></text>
          <g
             transform="matrix(1,0,0,-1,143.45311,104.9564)"
             style="font-size:9px;font-family:sans-serif;fill:#ffffff;stroke:#ffffff;text-rendering:geometricPrecision"
             font-size="9px"
             id="g239">
            <path
               style="stroke:none"
               d="m 88.5202,48.4157 c -1.001,0 -1.8125,0.9094 -1.8125,2.0313 v 4.0625 c 0,1.1218 0.8115,2.0312 1.8125,2.0312 1.0011,0 1.8125,-0.9094 1.8125,-2.0312 V 50.447 c 0,-1.1219 -0.8114,-2.0313 -1.8125,-2.0313 z"
               clip-path="url(#1844091758194-clipPath1)"
               id="path241" />
            <text
               style="line-height:0%;fill:#996600;stroke:none"
               x="0"
               y="9"
               transform="translate(86.0202,46.9782)"
               clip-path="url(#1844091758955-clipPath1)"
               xml:space="preserve"
               id="text243">F</text>
          </g>
        </g>
      </g>
    </g>
    <g
       style="font-weight:bold;font-size:9px;font-family:sans-serif;text-rendering:geometricPrecision"
       id="g327"
       font-weight="bold"
       font-size="9px">
      <text
         style="stroke:none"
         id="text329"
         clip-path="url(#1844091758194-clipPath1)"
         y="58"
         xml:space="preserve"
         x="0" />
    </g>
  </g>
</svg>
